<svg xmlns="http://www.w3.org/2000/svg" viewBox="0 0 640 640" width="640" height="640" role="img">
  <defs>
    <radialGradient id="bg" cx="50%" cy="38%" r="72%">
      <stop offset="0%" stop-color="#fdf4e6"/>
      <stop offset="100%" stop-color="#f0dfc4"/>
    </radialGradient>
    <filter id="soft" x="-20%" y="-20%" width="140%" height="140%">
      <feDropShadow dx="0" dy="10" stdDeviation="16" flood-color="#2a1b10" flood-opacity="0.18"/>
    </filter>
  </defs>
  <rect width="640" height="640" fill="url(#bg)"/>
  <g filter="url(#soft)">
    <ellipse cx="320" cy="480" rx="200" ry="36" fill="#ffffff"/>
    <path d="M 130 400 q 40 -215 190 -215 q 150 0 190 215 q -190 60 -380 0 z" fill="#f3d9a4"/>
    <path d="M 130 400 q 190 62 380 0 q -20 56 -190 56 q -170 0 -190 -56 z" fill="#d9a441"/>
    <path d="M 240 250 q 40 -34 80 0" fill="none" stroke="#b8822c" stroke-width="9" stroke-linecap="round"/>
    <path d="M 300 320 q 40 -34 80 0" fill="none" stroke="#b8822c" stroke-width="9" stroke-linecap="round"/>
    <path d="M 200 330 q 36 -30 72 0" fill="none" stroke="#b8822c" stroke-width="9" stroke-linecap="round"/>
  </g>
</svg>
