<svg xmlns="http://www.w3.org/2000/svg" viewBox="0 0 640 640" width="640" height="640" role="img">
  <defs>
    <radialGradient id="bg" cx="50%" cy="38%" r="72%">
      <stop offset="0%" stop-color="#fdf4e6"/>
      <stop offset="100%" stop-color="#f0dfc4"/>
    </radialGradient>
    <filter id="soft" x="-20%" y="-20%" width="140%" height="140%">
      <feDropShadow dx="0" dy="10" stdDeviation="16" flood-color="#2a1b10" flood-opacity="0.18"/>
    </filter>
  </defs>
  <rect width="640" height="640" fill="url(#bg)"/>
  <g filter="url(#soft)">
    <circle cx="320" cy="320" r="245" fill="#d9a441"/>
    <circle cx="320" cy="320" r="233" fill="#f3d9a4"/>
    <circle cx="320" cy="320" r="200" fill="#c0392b"/>
    <circle cx="320" cy="320" r="192" fill="#f4c95d"/>
  </g>
  <circle cx="312.8" cy="415.2" r="40.1" fill="#e0a93c" opacity="0.45"/>
  <circle cx="338.5" cy="344.8" r="40.7" fill="#e0a93c" opacity="0.45"/>
  <circle cx="324.0" cy="343.5" r="37.4" fill="#e0a93c" opacity="0.45"/>
  <circle cx="255.7" cy="349.8" r="38.1" fill="#e0a93c" opacity="0.45"/>
  <circle cx="439.5" cy="370.4" r="29.9" fill="#e0a93c" opacity="0.45"/>
  <circle cx="313.2" cy="162.6" r="30.6" fill="#e0a93c" opacity="0.45"/>
  <circle cx="290.2" cy="344.9" r="43.5" fill="#e0a93c" opacity="0.45"/>
  <circle cx="319.3" cy="408.5" r="23.3" fill="#e0a93c" opacity="0.45"/>
  <circle cx="427.3" cy="216.7" r="25.6" fill="#e0a93c" opacity="0.45"/>
  <circle cx="455.0" cy="325.3" r="34.8" fill="#e0a93c" opacity="0.45"/>
  <circle cx="296.0" cy="219.7" r="45.7" fill="#e0a93c" opacity="0.45"/>
  <circle cx="445.4" cy="324.1" r="33.7" fill="#e0a93c" opacity="0.45"/>
  <circle cx="399.4" cy="320.0" r="26.5" fill="#e0a93c" opacity="0.45"/>
  <circle cx="255.2" cy="379.6" r="40.0" fill="#e0a93c" opacity="0.45"/>

  <circle cx="112.6" cy="438.3" r="6.4" fill="#b8822c" opacity="0.5"/>


  <circle cx="337.7" cy="99.8" r="6.5" fill="#b8822c" opacity="0.5"/>

  <circle cx="273.8" cy="547.9" r="8.7" fill="#b8822c" opacity="0.5"/>



</svg>
