<svg xmlns="http://www.w3.org/2000/svg" viewBox="0 0 640 640" width="640" height="640" role="img">
  <defs>
    <radialGradient id="bg" cx="42%" cy="34%" r="78%">
      <stop offset="0%" stop-color="#eef4f7"/>
      <stop offset="70%" stop-color="#cfdde5"/>
      <stop offset="100%" stop-color="#c1cfd7"/>
    </radialGradient>
    <radialGradient id="rim" cx="36%" cy="30%" r="68%">
      <stop offset="0%" stop-color="#ffffff" stop-opacity="0.30"/>
      <stop offset="55%" stop-color="#ffffff" stop-opacity="0.04"/>
      <stop offset="100%" stop-color="#000000" stop-opacity="0.16"/>
    </radialGradient>
    <filter id="drop" x="-30%" y="-30%" width="160%" height="170%">
      <feDropShadow dx="0" dy="16" stdDeviation="22" flood-color="#2b1708" flood-opacity="0.30"/>
    </filter>
    <filter id="soften" x="-10%" y="-10%" width="120%" height="120%">
      <feGaussianBlur stdDeviation="1.1"/>
    </filter>
    <filter id="grain" x="0" y="0" width="100%" height="100%">
      <feTurbulence type="fractalNoise" baseFrequency="0.9" numOctaves="3" seed="167"/>
      <feColorMatrix type="saturate" values="0"/>
    </filter>
  </defs>
  <rect width="640" height="640" fill="url(#bg)"/>
  <g filter="url(#drop)">
    <path d="M262 168 h116 v44 q0 22 16 38 l22 24 q18 20 18 48 v190 q0 34 -34 34 h-160 q-34 0 -34 -34 v-190 q0 -28 18 -48 l22 -24 q16 -16 16 -38 z" fill="#579cb8"/>
    <path d="M266 172 h108 v40 q0 22 16 38 l22 24 q16 18 16 44 v186 q0 30 -30 30 h-156 q-30 0 -30 -30 v-186 q0 -26 16 -44 l22 -24 q16 -16 16 -38 z" fill="#7fc4e0"/>
  </g>
  <rect x="258" y="140" width="124" height="38" rx="9" fill="#2f6fa8"/>
  <rect x="258" y="140" width="124" height="12" rx="6" fill="#5191ca" opacity="0.6"/>
  <rect x="212" y="356" width="216" height="118" rx="10" fill="#ffffff" opacity="0.94"/>
  <rect x="232" y="386" width="176" height="16" rx="8" fill="#7fc4e0" opacity="0.75"/>
  <rect x="232" y="414" width="122" height="12" rx="6" fill="#7fc4e0" opacity="0.45"/>
  <path d="M232 214 q-14 40 -14 96 v150" fill="none" stroke="#fff" stroke-width="18" stroke-linecap="round" opacity="0.26"/>
  <path d="M402 236 q8 34 8 84 v128" fill="none" stroke="#fff" stroke-width="9" stroke-linecap="round" opacity="0.16"/>
  <circle cx="253" cy="223" r="3.7" fill="#fff" opacity="0.39"/>
  <circle cx="387" cy="457" r="5.3" fill="#fff" opacity="0.26"/>
  <circle cx="426" cy="417" r="4.0" fill="#fff" opacity="0.37"/>
  <circle cx="210" cy="452" r="2.4" fill="#fff" opacity="0.19"/>
  <circle cx="391" cy="210" r="4.1" fill="#fff" opacity="0.19"/>
  <circle cx="215" cy="522" r="2.0" fill="#fff" opacity="0.25"/>
  <circle cx="433" cy="224" r="4.5" fill="#fff" opacity="0.21"/>
  <circle cx="354" cy="511" r="3.3" fill="#fff" opacity="0.21"/>
  <circle cx="306" cy="492" r="4.6" fill="#fff" opacity="0.15"/>
  <circle cx="259" cy="303" r="3.8" fill="#fff" opacity="0.39"/>
  <circle cx="339" cy="427" r="2.3" fill="#fff" opacity="0.29"/>
  <circle cx="393" cy="444" r="3.7" fill="#fff" opacity="0.38"/>
  <circle cx="246" cy="287" r="3.0" fill="#fff" opacity="0.22"/>
  <circle cx="210" cy="207" r="4.3" fill="#fff" opacity="0.20"/>
  <circle cx="348" cy="242" r="5.9" fill="#fff" opacity="0.29"/>
  <circle cx="378" cy="322" r="4.3" fill="#fff" opacity="0.38"/>
  <circle cx="252" cy="321" r="2.6" fill="#fff" opacity="0.23"/>
  <circle cx="368" cy="402" r="3.4" fill="#fff" opacity="0.31"/>
  <circle cx="284" cy="329" r="2.1" fill="#fff" opacity="0.24"/>
  <circle cx="381" cy="249" r="3.0" fill="#fff" opacity="0.34"/>
  <circle cx="252" cy="557" r="4.7" fill="#fff" opacity="0.18"/>
  <circle cx="298" cy="520" r="4.7" fill="#fff" opacity="0.18"/>
  <circle cx="306" cy="402" r="2.2" fill="#fff" opacity="0.10"/>
  <circle cx="353" cy="385" r="2.1" fill="#fff" opacity="0.31"/>
  <circle cx="283" cy="356" r="2.1" fill="#fff" opacity="0.34"/>
  <circle cx="233" cy="313" r="5.0" fill="#fff" opacity="0.17"/>
  <circle cx="398" cy="474" r="4.5" fill="#fff" opacity="0.31"/>
  <circle cx="227" cy="291" r="5.1" fill="#fff" opacity="0.17"/>
  <circle cx="422" cy="490" r="4.7" fill="#fff" opacity="0.39"/>
  <circle cx="428" cy="513" r="5.6" fill="#fff" opacity="0.18"/>
  <circle cx="265" cy="301" r="5.8" fill="#fff" opacity="0.15"/>
  <circle cx="314" cy="369" r="3.0" fill="#fff" opacity="0.24"/>
  <circle cx="371" cy="260" r="2.6" fill="#fff" opacity="0.40"/>
  <circle cx="385" cy="463" r="5.0" fill="#fff" opacity="0.20"/>
  <circle cx="307" cy="395" r="4.4" fill="#fff" opacity="0.14"/>
  <circle cx="306" cy="305" r="2.3" fill="#fff" opacity="0.12"/>
  <circle cx="359" cy="472" r="4.0" fill="#fff" opacity="0.37"/>
  <circle cx="276" cy="362" r="5.9" fill="#fff" opacity="0.19"/>
  <circle cx="252" cy="237" r="5.3" fill="#fff" opacity="0.36"/>
  <circle cx="381" cy="524" r="3.4" fill="#fff" opacity="0.17"/>
  <rect width="640" height="640" filter="url(#grain)" opacity="0.05" style="mix-blend-mode:multiply"/>
  <rect width="640" height="640" fill="url(#rim)"/>
</svg>
