<svg xmlns="http://www.w3.org/2000/svg" viewBox="0 0 640 640" width="640" height="640" role="img">
  <defs>
    <radialGradient id="bg" cx="50%" cy="38%" r="72%">
      <stop offset="0%" stop-color="#f4f7f8"/>
      <stop offset="100%" stop-color="#dfe8ec"/>
    </radialGradient>
    <filter id="soft" x="-20%" y="-20%" width="140%" height="140%">
      <feDropShadow dx="0" dy="10" stdDeviation="16" flood-color="#2a1b10" flood-opacity="0.18"/>
    </filter>
  </defs>
  <rect width="640" height="640" fill="url(#bg)"/>
  <g filter="url(#soft)">
    <path d="M 275 110 L 365 110 L 365 175 Q 415 215 415 285 L 415 505 Q 415 530 390 530 L 250 530 Q 225 530 225 505 L 225 285 Q 225 215 275 175 Z" fill="#eef3f6" opacity="0.95"/>
    <path d="M 245 300 L 395 300 L 395 500 Q 395 512 383 512 L 257 512 Q 245 512 245 500 Z" fill="#8fc7e8"/>
    <rect x="268" y="86" width="104" height="36" rx="10" fill="#b3261e"/>
    <rect x="248" y="330" width="144" height="82" rx="10" fill="#ffffff" opacity="0.9"/>
    <text x="320" y="382" font-family="Verdana,DejaVu Sans,sans-serif" font-size="30" font-weight="700" fill="#2b2118" text-anchor="middle">WATER</text>
  </g>
</svg>
